<svg width="64" height="64" viewBox="0 0 64 64" fill="none" xmlns="http://www.w3.org/2000/svg">
<path d="M61.702 22.185C60.289 17.97 55.327 11.662 50.453 10.965C49.3373 10.7976 48.197 10.952 47.166 11.41C47.2313 10.2842 46.9746 9.16317 46.426 8.17797C44.06 3.85997 36.395 1.44397 32.038 1.59597C27.596 1.43997 19.941 3.85997 17.574 8.17797C17.0249 9.16332 16.7681 10.2849 16.834 11.411C15.803 10.9541 14.6635 10.7994 13.548 10.965C8.674 11.662 3.711 17.969 2.324 22.117C0.608 26.219 0.184 34.235 3.391 37.972C4.12707 38.8362 5.09523 39.4716 6.181 39.803C5.50034 40.514 5.02844 41.3986 4.817 42.36C3.692 47.388 8.96 54.68 12.17 57.3C14.573 59.575 20.83 62.406 25.876 62.406C27.216 62.406 28.472 62.206 29.546 61.744C30.5455 61.3233 31.3992 60.6181 32.001 59.716C32.6025 60.6179 33.4559 61.3231 34.455 61.744C35.531 62.207 36.787 62.407 38.127 62.407C43.171 62.407 49.415 59.584 51.773 57.349C55.018 54.697 60.243 47.417 59.11 42.349C58.9034 41.4002 58.4458 40.5244 57.785 39.813C58.8844 39.485 59.8653 38.8456 60.609 37.972C63.816 34.235 63.393 26.219 61.702 22.185ZM19.328 9.13997C21.268 5.60197 28.249 3.45197 32.038 3.59597C35.788 3.44597 42.732 5.60197 44.672 9.13997C45.518 10.682 45.319 12.315 44.065 14.132L37.245 23.932C35.938 23.2021 34.4926 22.7542 33.002 22.617V13.683C33.002 13.4178 32.8966 13.1634 32.7091 12.9759C32.5216 12.7883 32.2672 12.683 32.002 12.683C31.7368 12.683 31.4824 12.7883 31.2949 12.9759C31.1074 13.1634 31.002 13.4178 31.002 13.683V22.617C29.455 22.759 28.002 23.231 26.712 23.959L19.935 14.132C18.681 12.315 18.482 10.682 19.328 9.13997ZM40.804 33.369C40.804 38.222 36.855 42.17 32.002 42.17C27.146 42.17 23.196 38.222 23.196 33.369C23.196 28.515 27.146 24.566 32.002 24.566C36.855 24.566 40.804 28.515 40.804 33.369ZM4.908 36.669C2.279 33.607 2.722 26.348 4.195 22.822C5.385 19.268 9.836 13.517 13.831 12.946C15.573 12.7 17.031 13.458 18.29 15.27L25.067 25.095C23.8775 26.0959 22.9169 27.3407 22.25 28.745L13.995 26.411C13.8686 26.3753 13.7364 26.3648 13.606 26.3801C13.4755 26.3955 13.3494 26.4364 13.2347 26.5005C13.1201 26.5647 13.0192 26.6507 12.9379 26.7538C12.8565 26.857 12.7962 26.9751 12.7605 27.1015C12.7248 27.2279 12.7143 27.3601 12.7297 27.4905C12.745 27.621 12.786 27.7471 12.8501 27.8617C12.9142 27.9764 13.0003 28.0772 13.1034 28.1586C13.2065 28.24 13.3246 28.3003 13.451 28.336L21.561 30.629C21.331 31.506 21.196 32.421 21.196 33.369C21.196 33.92 21.251 34.459 21.331 34.989L9.793 37.859C7.651 38.395 6.053 38.004 4.908 36.669ZM28.757 59.909C24.757 61.629 16.447 58.595 13.491 55.801C10.25 53.151 5.915 46.613 6.769 42.798C7.103 41.303 8.219 40.337 10.18 39.846C10.216 39.836 10.243 39.813 10.277 39.8L21.811 36.93C22.3903 38.5763 23.3592 40.0581 24.635 41.249L19.538 47.911C19.3769 48.1217 19.3061 48.3878 19.3411 48.6507C19.3762 48.9136 19.5143 49.1519 19.725 49.313C19.9357 49.4741 20.2018 49.5449 20.4647 49.5098C20.7277 49.4748 20.9659 49.3367 21.127 49.126L26.215 42.476C27.6566 43.3981 29.298 43.9618 31.002 44.12V56.01C31.002 57.983 30.268 59.259 28.757 59.909ZM50.454 55.849C47.553 58.595 39.245 61.627 35.247 59.909C33.737 59.259 33.002 57.983 33.002 56.009V44.119C34.6796 43.963 36.2967 43.4135 37.722 42.515L42.814 49.171C42.9751 49.3817 43.2133 49.5198 43.4763 49.5548C43.7392 49.5899 44.0053 49.5191 44.216 49.358C44.4267 49.1969 44.5648 48.9586 44.5999 48.6957C44.6349 48.4328 44.5641 48.1667 44.403 47.956L39.31 41.3C40.6154 40.0985 41.6052 38.5943 42.192 36.92L53.722 39.8H53.724C55.696 40.294 56.82 41.271 57.159 42.787C58.02 46.639 53.727 53.17 50.454 55.849ZM59.092 36.669C57.947 38.004 56.35 38.395 54.21 37.86H54.208L42.671 34.978C42.75 34.452 42.804 33.917 42.804 33.368C42.804 32.421 42.669 31.506 42.439 30.629L50.549 28.335C50.6781 28.3018 50.7993 28.2431 50.9054 28.1624C51.0116 28.0816 51.1005 27.9805 51.1669 27.8649C51.2334 27.7493 51.2761 27.6216 51.2924 27.4893C51.3088 27.357 51.2986 27.2227 51.2623 27.0944C51.226 26.9661 51.1644 26.8463 51.0812 26.7422C50.998 26.638 50.8947 26.5515 50.7776 26.4879C50.6604 26.4242 50.5317 26.3846 50.3991 26.3714C50.2664 26.3582 50.1324 26.3716 50.005 26.411L41.75 28.746C41.0768 27.3252 40.103 26.0675 38.896 25.06L45.71 15.27C46.97 13.458 48.43 12.702 50.17 12.946C54.165 13.517 58.615 19.268 59.831 22.89C61.278 26.348 61.721 33.606 59.092 36.669Z" fill="#FDF6F0"/>
<path d="M32.002 27.648C30.4855 27.6496 29.0317 28.2528 27.9594 29.3252C26.8872 30.3976 26.2843 31.8516 26.283 33.368C26.2854 34.8837 26.8888 36.3365 27.9609 37.4079C29.033 38.4793 30.4863 39.0817 32.002 39.083C33.5173 39.0814 34.9701 38.4788 36.0417 37.4074C37.1133 36.336 37.7161 34.8833 37.718 33.368C37.7169 31.852 37.1145 30.3983 36.0429 29.3259C34.9713 28.2536 33.518 27.6501 32.002 27.648ZM32.002 37.083C31.0165 37.0825 30.0715 36.691 29.3743 35.9946C28.677 35.2981 28.2846 34.3535 28.283 33.368C28.283 31.317 29.952 29.648 32.002 29.648C32.9877 29.6496 33.9326 30.0422 34.6293 30.7396C35.3259 31.437 35.7175 32.3823 35.718 33.368C35.7167 34.3531 35.3247 35.2974 34.6281 35.9938C33.9314 36.6902 32.987 37.082 32.002 37.083Z" fill="#FDF6F0"/>
</svg>
