<svg width="37" height="37" viewBox="0 0 37 37" fill="none" xmlns="http://www.w3.org/2000/svg">
<path d="M13.875 29.2918C6.16671 31.6043 6.16671 25.4376 3.08337 24.6668M24.6667 33.9168V27.9505C24.7245 27.2154 24.6252 26.4764 24.3754 25.7826C24.1255 25.0889 23.7308 24.4562 23.2175 23.9268C28.0584 23.3872 33.1459 21.5526 33.1459 13.1351C33.1455 10.9827 32.3175 8.91281 30.8334 7.35388C31.5362 5.47074 31.4865 3.38925 30.6946 1.54179C30.6946 1.54179 28.8755 1.00221 24.6667 3.82346C21.1332 2.86581 17.4085 2.86581 13.875 3.82346C9.66629 1.00221 7.84712 1.54179 7.84712 1.54179C7.05529 3.38925 7.0056 5.47074 7.70837 7.35388C6.21315 8.92437 5.38435 11.013 5.39587 13.1814C5.39587 21.5372 10.4834 23.3718 15.3242 23.973C14.817 24.4972 14.4258 25.1222 14.1761 25.8075C13.9265 26.4928 13.8239 27.223 13.875 27.9505V33.9168" stroke="#B68973" stroke-width="2" stroke-linecap="round" stroke-linejoin="round"/>
</svg>
