<svg width="37" height="37" viewBox="0 0 37 37" fill="none" xmlns="http://www.w3.org/2000/svg">
<path d="M26.9792 10.021H26.9946M10.7917 3.0835H26.2084C30.4656 3.0835 33.9167 6.53463 33.9167 10.7918V26.2085C33.9167 30.4657 30.4656 33.9168 26.2084 33.9168H10.7917C6.53451 33.9168 3.08337 30.4657 3.08337 26.2085V10.7918C3.08337 6.53463 6.53451 3.0835 10.7917 3.0835ZM24.6667 17.5289C24.857 18.812 24.6378 20.1223 24.0404 21.2736C23.443 22.425 22.4978 23.3586 21.3392 23.9417C20.1806 24.5249 18.8676 24.7279 17.587 24.5218C16.3064 24.3157 15.1234 23.7111 14.2063 22.794C13.2891 21.8768 12.6845 20.6938 12.4784 19.4132C12.2723 18.1326 12.4753 16.8196 13.0585 15.661C13.6416 14.5024 14.5752 13.5572 15.7266 12.9598C16.8779 12.3624 18.1882 12.1432 19.4713 12.3335C20.78 12.5276 21.9917 13.1374 22.9272 14.073C23.8628 15.0085 24.4726 16.2202 24.6667 17.5289Z" stroke="#B68973" stroke-width="2" stroke-linecap="round" stroke-linejoin="round"/>
</svg>
