<svg width="37" height="37" viewBox="0 0 37 37" fill="none" xmlns="http://www.w3.org/2000/svg">
<path d="M24.6667 12.3335C27.12 12.3335 29.4727 13.308 31.2074 15.0428C32.9422 16.7775 33.9167 19.1302 33.9167 21.5835V32.3752H27.75V21.5835C27.75 20.7657 27.4252 19.9815 26.847 19.4033C26.2687 18.825 25.4845 18.5002 24.6667 18.5002C23.849 18.5002 23.0647 18.825 22.4865 19.4033C21.9082 19.9815 21.5834 20.7657 21.5834 21.5835V32.3752H15.4167V21.5835C15.4167 19.1302 16.3913 16.7775 18.126 15.0428C19.8607 13.308 22.2135 12.3335 24.6667 12.3335Z" stroke="#B68973" stroke-width="2" stroke-linecap="round" stroke-linejoin="round"/>
<path d="M9.25004 13.8752H3.08337V32.3752H9.25004V13.8752Z" stroke="#B68973" stroke-width="2" stroke-linecap="round" stroke-linejoin="round"/>
<path d="M6.16671 9.25016C7.86959 9.25016 9.25004 7.86971 9.25004 6.16683C9.25004 4.46395 7.86959 3.0835 6.16671 3.0835C4.46383 3.0835 3.08337 4.46395 3.08337 6.16683C3.08337 7.86971 4.46383 9.25016 6.16671 9.25016Z" stroke="#B68973" stroke-width="2" stroke-linecap="round" stroke-linejoin="round"/>
</svg>
