<svg width="37" height="37" viewBox="0 0 37 37" fill="none" xmlns="http://www.w3.org/2000/svg">
<path d="M6.16671 30.8332C5.31879 30.8332 4.59292 30.5313 3.9891 29.9274C3.38528 29.3236 3.08337 28.5978 3.08337 27.7498V9.24984C3.08337 8.40192 3.38528 7.67605 3.9891 7.07223C4.59292 6.46841 5.31879 6.1665 6.16671 6.1665H30.8334C31.6813 6.1665 32.4072 6.46841 33.011 7.07223C33.6148 7.67605 33.9167 8.40192 33.9167 9.24984V27.7498C33.9167 28.5978 33.6148 29.3236 33.011 29.9274C32.4072 30.5313 31.6813 30.8332 30.8334 30.8332H6.16671ZM18.5 20.0415L6.16671 12.3332V27.7498H30.8334V12.3332L18.5 20.0415ZM18.5 16.9582L30.8334 9.24984H6.16671L18.5 16.9582ZM6.16671 12.3332V9.24984V27.7498V12.3332Z" fill="#B68973"/>
</svg>
